<svg width="64" height="64" viewBox="0 0 64 64" fill="none" xmlns="http://www.w3.org/2000/svg">
  <path d="M18 44H46V48C46 49.1 45.1 50 44 50H20C18.9 50 18 49.1 18 48V44Z" fill="#3E3325"/>
  <path d="M20 28C20 22.48 24.48 18 30 18H34C39.52 18 44 22.48 44 28V44H20V28Z" fill="#3E3325"/>
  <path d="M26 16C25.3 14.49 24.99 13.23 25.08 12.21C25.15 11.42 25.47 10.72 26.04 10.26C26.53 9.86 27.18 9.67 28 9.7C28.22 12.11 27.55 14.21 26 16Z" fill="#3E3325"/>
  <path d="M33 14C32.56 12.35 32.58 11 33.06 9.95C33.43 9.15 34.03 8.56 34.83 8.23C35.51 7.96 36.24 7.95 37 8.2C36.64 10.59 35.32 12.53 33 14Z" fill="#3E3325"/>
  <path d="M39 17C39.38 15.45 40.04 14.3 40.97 13.56C41.69 12.98 42.51 12.68 43.42 12.69C44.18 12.7 44.89 12.95 45.54 13.45C44.48 15.63 42.63 16.81 39 17Z" fill="#3E3325"/>
  <circle cx="27" cy="31" r="2" fill="#F2EDE3"/>
  <circle cx="37" cy="31" r="2" fill="#F2EDE3"/>
</svg>