<svg width="64" height="64" viewBox="0 0 64 64" fill="none" xmlns="http://www.w3.org/2000/svg">
  <path d="M32 10C19.85 10 10 19.85 10 32C10 41.72 16.3 49.96 25.04 52.87C26.14 53.07 26.54 52.4 26.54 51.82V48.26C20.43 49.59 19.14 45.67 19.14 45.67C18.14 43.12 16.71 42.44 16.71 42.44C14.72 41.08 16.86 41.11 16.86 41.11C19.06 41.27 20.21 43.37 20.21 43.37C22.16 46.72 25.34 45.75 26.58 45.18C26.78 43.76 27.34 42.79 27.96 42.24C23.08 41.69 17.95 39.8 17.95 31.34C17.95 28.93 18.81 26.95 20.22 25.39C20 24.84 19.24 22.61 20.43 19.59C20.43 19.59 22.28 19 26.49 21.86C28.25 21.37 30.13 21.12 32 21.11C33.87 21.12 35.76 21.37 37.53 21.86C41.73 19 43.57 19.59 43.57 19.59C44.77 22.61 44.01 24.84 43.79 25.39C45.2 26.95 46.05 28.93 46.05 31.34C46.05 39.82 40.91 41.68 36.01 42.22C36.79 42.9 37.49 44.24 37.49 46.29V51.82C37.49 52.4 37.88 53.08 39 52.87C47.72 49.95 54 41.71 54 32C54 19.85 44.15 10 32 10Z" fill="#3E3325"/>
</svg>